<svg xmlns="http://www.w3.org/2000/svg" xmlns:xlink="http://www.w3.org/1999/xlink" width="500" zoomAndPan="magnify" viewBox="0 0 375 374.999991" height="500" preserveAspectRatio="xMidYMid meet" version="1.0"><defs><g/><clipPath id="43fd11d87f"><path d="M 29.765625 82 L 337.265625 82 L 337.265625 246 L 29.765625 246 Z M 29.765625 82 " clip-rule="nonzero"/></clipPath><clipPath id="ded865b342"><path d="M 13 115.445312 L 361 115.445312 L 361 373.445312 L 13 373.445312 Z M 13 115.445312 " clip-rule="nonzero"/></clipPath></defs><path fill="#81bf51" d="M 327.964844 82 L 298.734375 0 L 64.171875 82 Z M 327.964844 82 " fill-opacity="1" fill-rule="nonzero"/><g clip-path="url(#43fd11d87f)"><path fill="#65993f" d="M 29.769531 82 L 337.265625 82 L 337.265625 246 L 29.769531 246 Z M 29.769531 82 " fill-opacity="1" fill-rule="nonzero"/></g><path fill="#94dd5e" d="M 293.050781 45.046875 C 282.371094 48.78125 270.667969 43.234375 266.898438 32.660156 L 266.898438 32.65625 L 125.757812 82 L 306.597656 82 Z M 293.050781 45.046875 " fill-opacity="1" fill-rule="nonzero"/><path fill="#81bf51" d="M 296.265625 225.5 C 296.265625 214.179688 305.445312 205 316.765625 205 L 316.765625 123.003906 L 316.761719 123.003906 C 305.4375 123 296.265625 113.828125 296.265625 102.503906 L 296.265625 102.5 L 70.765625 102.5 C 70.765625 113.820312 61.589844 123 50.265625 123.003906 L 50.265625 205 C 61.589844 205 70.765625 214.179688 70.765625 225.5 Z M 296.265625 225.5 " fill-opacity="1" fill-rule="nonzero"/><path fill="#94dd5e" d="M 274.453125 212.882812 C 274.453125 203.667969 281.925781 196.195312 291.140625 196.195312 L 291.140625 129.441406 L 291.136719 129.441406 C 281.921875 129.441406 274.449219 121.96875 274.449219 112.753906 L 274.449219 112.75 L 90.871094 112.75 C 90.871094 121.96875 83.398438 129.441406 74.1875 129.441406 L 74.1875 196.195312 C 83.398438 196.195312 90.871094 203.667969 90.871094 212.882812 Z M 274.453125 212.882812 " fill-opacity="1" fill-rule="nonzero"/><path fill="#65993f" d="M 234.765625 164 C 234.765625 166.015625 234.683594 168.023438 234.519531 170.027344 C 234.355469 172.03125 234.109375 174.023438 233.78125 175.996094 C 233.453125 177.972656 233.046875 179.925781 232.558594 181.851562 C 232.070312 183.78125 231.507812 185.675781 230.863281 187.535156 C 230.222656 189.394531 229.503906 191.214844 228.714844 192.992188 C 227.921875 194.765625 227.0625 196.492188 226.128906 198.167969 C 225.195312 199.84375 224.199219 201.457031 223.132812 203.015625 C 222.066406 204.570312 220.941406 206.0625 219.753906 207.488281 C 218.566406 208.910156 217.324219 210.261719 216.027344 211.539062 C 214.730469 212.816406 213.382812 214.015625 211.988281 215.136719 C 210.59375 216.253906 209.15625 217.289062 207.675781 218.238281 C 206.195312 219.1875 204.679688 220.046875 203.128906 220.820312 C 201.578125 221.589844 200 222.265625 198.394531 222.851562 C 196.785156 223.4375 195.160156 223.925781 193.515625 224.316406 C 191.867188 224.710938 190.210938 225.007812 188.539062 225.203125 C 186.871094 225.402344 185.195312 225.5 183.515625 225.5 C 181.835938 225.5 180.164062 225.402344 178.492188 225.203125 C 176.824219 225.007812 175.164062 224.710938 173.519531 224.316406 C 171.871094 223.925781 170.246094 223.4375 168.640625 222.851562 C 167.03125 222.265625 165.453125 221.589844 163.902344 220.820312 C 162.351562 220.046875 160.835938 219.1875 159.359375 218.238281 C 157.878906 217.289062 156.4375 216.253906 155.042969 215.136719 C 153.648438 214.015625 152.300781 212.816406 151.003906 211.539062 C 149.707031 210.261719 148.464844 208.910156 147.277344 207.488281 C 146.089844 206.0625 144.964844 204.570312 143.898438 203.015625 C 142.835938 201.457031 141.835938 199.84375 140.902344 198.167969 C 139.972656 196.492188 139.109375 194.765625 138.316406 192.992188 C 137.527344 191.214844 136.808594 189.394531 136.167969 187.535156 C 135.527344 185.675781 134.960938 183.78125 134.472656 181.851562 C 133.988281 179.925781 133.578125 177.972656 133.25 175.996094 C 132.925781 174.023438 132.679688 172.03125 132.511719 170.027344 C 132.347656 168.023438 132.265625 166.015625 132.265625 164 C 132.265625 161.984375 132.347656 159.976562 132.511719 157.972656 C 132.679688 155.96875 132.925781 153.976562 133.25 152 C 133.578125 150.027344 133.988281 148.074219 134.472656 146.148438 C 134.960938 144.21875 135.527344 142.324219 136.167969 140.464844 C 136.808594 138.605469 137.527344 136.785156 138.316406 135.007812 C 139.109375 133.234375 139.972656 131.507812 140.902344 129.832031 C 141.835938 128.15625 142.835938 126.542969 143.898438 124.984375 C 144.964844 123.429688 146.089844 121.9375 147.277344 120.511719 C 148.464844 119.089844 149.707031 117.738281 151.003906 116.460938 C 152.300781 115.183594 153.648438 113.984375 155.042969 112.863281 C 156.4375 111.746094 157.878906 110.710938 159.359375 109.761719 C 160.835938 108.8125 162.351562 107.953125 163.902344 107.179688 C 165.453125 106.410156 167.03125 105.734375 168.640625 105.148438 C 170.246094 104.5625 171.871094 104.074219 173.519531 103.683594 C 175.164062 103.289062 176.824219 102.992188 178.492188 102.796875 C 180.164062 102.597656 181.835938 102.5 183.515625 102.5 C 185.195312 102.5 186.871094 102.597656 188.539062 102.796875 C 190.210938 102.992188 191.867188 103.289062 193.515625 103.683594 C 195.160156 104.074219 196.785156 104.5625 198.394531 105.148438 C 200 105.734375 201.578125 106.410156 203.128906 107.179688 C 204.679688 107.953125 206.195312 108.8125 207.675781 109.761719 C 209.15625 110.710938 210.59375 111.746094 211.988281 112.863281 C 213.382812 113.984375 214.730469 115.183594 216.027344 116.460938 C 217.324219 117.738281 218.566406 119.089844 219.753906 120.511719 C 220.941406 121.9375 222.066406 123.429688 223.132812 124.984375 C 224.199219 126.542969 225.195312 128.15625 226.128906 129.832031 C 227.0625 131.507812 227.921875 133.234375 228.714844 135.007812 C 229.503906 136.785156 230.222656 138.605469 230.863281 140.464844 C 231.507812 142.324219 232.070312 144.21875 232.558594 146.148438 C 233.046875 148.074219 233.453125 150.027344 233.78125 152 C 234.109375 153.976562 234.355469 155.96875 234.519531 157.972656 C 234.683594 159.976562 234.765625 161.984375 234.765625 164 Z M 234.765625 164 " fill-opacity="1" fill-rule="nonzero"/><path fill="#81bf51" d="M 45.144531 97.375 L 55.390625 97.375 L 55.390625 107.625 L 45.144531 107.625 Z M 45.144531 97.375 " fill-opacity="1" fill-rule="nonzero"/><path fill="#81bf51" d="M 45.144531 220.375 L 55.390625 220.375 L 55.390625 230.625 L 45.144531 230.625 Z M 45.144531 220.375 " fill-opacity="1" fill-rule="nonzero"/><path fill="#81bf51" d="M 311.640625 97.375 L 321.890625 97.375 L 321.890625 107.625 L 311.640625 107.625 Z M 311.640625 97.375 " fill-opacity="1" fill-rule="nonzero"/><path fill="#65993f" d="M 279.703125 22.757812 L 289.371094 19.378906 L 292.753906 29.054688 L 283.089844 32.433594 Z M 279.703125 22.757812 " fill-opacity="1" fill-rule="nonzero"/><path fill="#81bf51" d="M 311.640625 220.375 L 321.890625 220.375 L 321.890625 230.625 L 311.640625 230.625 Z M 311.640625 220.375 " fill-opacity="1" fill-rule="nonzero"/><path fill="#65993f" d="M 275.765625 164 C 275.765625 164.671875 275.699219 165.339844 275.570312 166 C 275.4375 166.660156 275.242188 167.300781 274.984375 167.921875 C 274.726562 168.542969 274.410156 169.136719 274.039062 169.695312 C 273.664062 170.253906 273.238281 170.773438 272.761719 171.246094 C 272.289062 171.722656 271.769531 172.148438 271.210938 172.523438 C 270.652344 172.894531 270.058594 173.210938 269.4375 173.46875 C 268.816406 173.726562 268.175781 173.921875 267.515625 174.054688 C 266.855469 174.183594 266.1875 174.25 265.515625 174.25 C 264.84375 174.25 264.175781 174.183594 263.515625 174.054688 C 262.855469 173.921875 262.214844 173.726562 261.59375 173.46875 C 260.972656 173.210938 260.378906 172.894531 259.820312 172.523438 C 259.261719 172.148438 258.742188 171.722656 258.269531 171.246094 C 257.792969 170.773438 257.367188 170.253906 256.992188 169.695312 C 256.617188 169.136719 256.304688 168.542969 256.046875 167.921875 C 255.789062 167.300781 255.59375 166.660156 255.460938 166 C 255.332031 165.339844 255.265625 164.671875 255.265625 164 C 255.265625 163.328125 255.332031 162.660156 255.460938 162 C 255.59375 161.339844 255.789062 160.699219 256.046875 160.078125 C 256.304688 159.457031 256.617188 158.863281 256.992188 158.304688 C 257.367188 157.746094 257.792969 157.226562 258.269531 156.753906 C 258.742188 156.277344 259.261719 155.851562 259.820312 155.476562 C 260.378906 155.101562 260.972656 154.789062 261.59375 154.53125 C 262.214844 154.273438 262.855469 154.078125 263.515625 153.945312 C 264.175781 153.816406 264.84375 153.75 265.515625 153.75 C 266.1875 153.75 266.855469 153.816406 267.515625 153.945312 C 268.175781 154.078125 268.816406 154.273438 269.4375 154.53125 C 270.058594 154.789062 270.652344 155.101562 271.210938 155.476562 C 271.769531 155.851562 272.289062 156.277344 272.761719 156.753906 C 273.238281 157.226562 273.664062 157.746094 274.039062 158.304688 C 274.410156 158.863281 274.726562 159.457031 274.984375 160.078125 C 275.242188 160.699219 275.4375 161.339844 275.570312 162 C 275.699219 162.660156 275.765625 163.328125 275.765625 164 Z M 275.765625 164 " fill-opacity="1" fill-rule="nonzero"/><path fill="#65993f" d="M 111.765625 164 C 111.765625 164.671875 111.703125 165.339844 111.570312 166 C 111.4375 166.660156 111.246094 167.300781 110.988281 167.921875 C 110.730469 168.542969 110.414062 169.136719 110.039062 169.695312 C 109.664062 170.253906 109.242188 170.773438 108.765625 171.246094 C 108.289062 171.722656 107.769531 172.148438 107.210938 172.523438 C 106.652344 172.894531 106.0625 173.210938 105.441406 173.46875 C 104.816406 173.726562 104.175781 173.921875 103.515625 174.054688 C 102.855469 174.183594 102.191406 174.25 101.515625 174.25 C 100.84375 174.25 100.175781 174.183594 99.515625 174.054688 C 98.855469 173.921875 98.214844 173.726562 97.59375 173.46875 C 96.972656 173.210938 96.382812 172.894531 95.824219 172.523438 C 95.261719 172.148438 94.746094 171.722656 94.269531 171.246094 C 93.792969 170.773438 93.367188 170.253906 92.996094 169.695312 C 92.621094 169.136719 92.304688 168.542969 92.046875 167.921875 C 91.789062 167.300781 91.59375 166.660156 91.464844 166 C 91.332031 165.339844 91.265625 164.671875 91.265625 164 C 91.265625 163.328125 91.332031 162.660156 91.464844 162 C 91.59375 161.339844 91.789062 160.699219 92.046875 160.078125 C 92.304688 159.457031 92.621094 158.863281 92.996094 158.304688 C 93.367188 157.746094 93.792969 157.226562 94.269531 156.753906 C 94.746094 156.277344 95.261719 155.851562 95.824219 155.476562 C 96.382812 155.101562 96.972656 154.789062 97.59375 154.53125 C 98.214844 154.273438 98.855469 154.078125 99.515625 153.945312 C 100.175781 153.816406 100.84375 153.75 101.515625 153.75 C 102.191406 153.75 102.855469 153.816406 103.515625 153.945312 C 104.175781 154.078125 104.816406 154.273438 105.441406 154.53125 C 106.0625 154.789062 106.652344 155.101562 107.210938 155.476562 C 107.769531 155.851562 108.289062 156.277344 108.765625 156.753906 C 109.242188 157.226562 109.664062 157.746094 110.039062 158.304688 C 110.414062 158.863281 110.730469 159.457031 110.988281 160.078125 C 111.246094 160.699219 111.4375 161.339844 111.570312 162 C 111.703125 162.660156 111.765625 163.328125 111.765625 164 Z M 111.765625 164 " fill-opacity="1" fill-rule="nonzero"/><path fill="#81bf51" d="M 214.265625 143.5 L 214.265625 133.25 L 157.890625 133.25 L 157.890625 143.5 L 183.515625 143.5 C 187.292969 143.5 190.5625 145.574219 192.339844 148.625 L 157.890625 148.625 L 157.890625 158.875 L 192.339844 158.875 C 190.5625 161.925781 187.292969 164 183.515625 164 L 163.015625 164 C 160.945312 164 159.070312 165.25 158.28125 167.164062 C 157.488281 169.078125 157.925781 171.28125 159.394531 172.75 L 190.144531 203.5 L 197.390625 196.25 L 175.386719 174.25 L 183.515625 174.25 C 193.042969 174.25 200.996094 167.691406 203.289062 158.875 L 214.265625 158.875 L 214.265625 148.625 L 203.289062 148.625 C 202.8125 146.800781 202.09375 145.089844 201.167969 143.5 Z M 214.265625 143.5 " fill-opacity="1" fill-rule="nonzero"/><g clip-path="url(#ded865b342)"><path fill="#623c36" d="M 360.484375 360.234375 C 360.484375 367.382812 354.683594 373.171875 347.546875 373.171875 L 26.191406 373.171875 C 19.046875 373.171875 13.25 367.382812 13.25 360.234375 L 13.25 128.394531 C 13.25 121.246094 19.046875 115.457031 26.191406 115.457031 L 347.546875 115.457031 C 354.683594 115.457031 360.484375 121.246094 360.484375 128.394531 L 360.484375 360.234375 " fill-opacity="1" fill-rule="nonzero"/></g><path fill="#ffffff" d="M 13.25 132.390625 L 19.71875 132.390625 C 20.914062 132.390625 21.878906 131.425781 21.878906 130.234375 C 21.878906 129.039062 20.914062 128.074219 19.71875 128.074219 L 13.25 128.074219 C 12.058594 128.074219 11.09375 129.039062 11.09375 130.234375 C 11.09375 131.425781 12.058594 132.390625 13.25 132.390625 " fill-opacity="1" fill-rule="nonzero"/><path fill="#ffffff" d="M 32.554688 132.390625 L 45.394531 132.390625 C 46.582031 132.390625 47.546875 131.425781 47.546875 130.234375 C 47.546875 129.039062 46.582031 128.074219 45.394531 128.074219 L 32.554688 128.074219 C 31.367188 128.074219 30.402344 129.039062 30.402344 130.234375 C 30.402344 131.425781 31.367188 132.390625 32.554688 132.390625 Z M 58.226562 132.390625 L 71.0625 132.390625 C 72.253906 132.390625 73.21875 131.425781 73.21875 130.234375 C 73.21875 129.039062 72.253906 128.074219 71.0625 128.074219 L 58.226562 128.074219 C 57.035156 128.074219 56.070312 129.039062 56.070312 130.234375 C 56.070312 131.425781 57.035156 132.390625 58.226562 132.390625 Z M 83.902344 132.390625 L 96.734375 132.390625 C 97.929688 132.390625 98.894531 131.425781 98.894531 130.234375 C 98.894531 129.039062 97.929688 128.074219 96.734375 128.074219 L 83.902344 128.074219 C 82.707031 128.074219 81.742188 129.039062 81.742188 130.234375 C 81.742188 131.425781 82.707031 132.390625 83.902344 132.390625 Z M 109.570312 132.390625 L 122.410156 132.390625 C 123.597656 132.390625 124.5625 131.425781 124.5625 130.234375 C 124.5625 129.039062 123.597656 128.074219 122.410156 128.074219 L 109.570312 128.074219 C 108.382812 128.074219 107.417969 129.039062 107.417969 130.234375 C 107.417969 131.425781 108.382812 132.390625 109.570312 132.390625 Z M 135.246094 132.390625 L 148.078125 132.390625 C 149.269531 132.390625 150.238281 131.425781 150.238281 130.234375 C 150.238281 129.039062 149.269531 128.074219 148.078125 128.074219 L 135.246094 128.074219 C 134.050781 128.074219 133.085938 129.039062 133.085938 130.234375 C 133.085938 131.425781 134.050781 132.390625 135.246094 132.390625 Z M 160.917969 132.390625 L 173.753906 132.390625 C 174.945312 132.390625 175.910156 131.425781 175.910156 130.234375 C 175.910156 129.039062 174.945312 128.074219 173.753906 128.074219 L 160.917969 128.074219 C 159.726562 128.074219 158.757812 129.039062 158.757812 130.234375 C 158.757812 131.425781 159.726562 132.390625 160.917969 132.390625 Z M 186.585938 132.390625 L 199.421875 132.390625 C 200.613281 132.390625 201.578125 131.425781 201.578125 130.234375 C 201.578125 129.039062 200.613281 128.074219 199.421875 128.074219 L 186.585938 128.074219 C 185.394531 128.074219 184.429688 129.039062 184.429688 130.234375 C 184.429688 131.425781 185.394531 132.390625 186.585938 132.390625 Z M 212.261719 132.390625 L 225.09375 132.390625 C 226.289062 132.390625 227.253906 131.425781 227.253906 130.234375 C 227.253906 129.039062 226.289062 128.074219 225.09375 128.074219 L 212.261719 128.074219 C 211.066406 128.074219 210.101562 129.039062 210.101562 130.234375 C 210.101562 131.425781 211.066406 132.390625 212.261719 132.390625 Z M 237.929688 132.390625 L 250.769531 132.390625 C 251.957031 132.390625 252.921875 131.425781 252.921875 130.234375 C 252.921875 129.039062 251.957031 128.074219 250.769531 128.074219 L 237.929688 128.074219 C 236.742188 128.074219 235.777344 129.039062 235.777344 130.234375 C 235.777344 131.425781 236.742188 132.390625 237.929688 132.390625 Z M 263.605469 132.390625 L 276.4375 132.390625 C 277.632812 132.390625 278.597656 131.425781 278.597656 130.234375 C 278.597656 129.039062 277.632812 128.074219 276.4375 128.074219 L 263.605469 128.074219 C 262.410156 128.074219 261.445312 129.039062 261.445312 130.234375 C 261.445312 131.425781 262.410156 132.390625 263.605469 132.390625 Z M 289.277344 132.390625 L 302.113281 132.390625 C 303.304688 132.390625 304.269531 131.425781 304.269531 130.234375 C 304.269531 129.039062 303.304688 128.074219 302.113281 128.074219 L 289.277344 128.074219 C 288.085938 128.074219 287.121094 129.039062 287.121094 130.234375 C 287.121094 131.425781 288.085938 132.390625 289.277344 132.390625 Z M 314.953125 132.390625 L 327.785156 132.390625 C 328.980469 132.390625 329.945312 131.425781 329.945312 130.234375 C 329.945312 129.039062 328.980469 128.074219 327.785156 128.074219 L 314.953125 128.074219 C 313.757812 128.074219 312.792969 129.039062 312.792969 130.234375 C 312.792969 131.425781 313.757812 132.390625 314.953125 132.390625 Z M 336.957031 136.699219 C 337.875 138.144531 338.40625 139.84375 338.40625 141.683594 L 338.40625 148.035156 C 338.40625 149.226562 339.371094 150.191406 340.566406 150.191406 C 341.757812 150.191406 342.722656 149.226562 342.722656 148.035156 L 342.722656 141.683594 C 342.722656 139.007812 341.941406 136.488281 340.597656 134.382812 C 339.957031 133.378906 338.621094 133.085938 337.617188 133.722656 C 336.613281 134.363281 336.316406 135.695312 336.957031 136.699219 Z M 338.40625 160.867188 L 338.40625 173.707031 C 338.40625 174.894531 339.371094 175.859375 340.566406 175.859375 C 341.757812 175.859375 342.722656 174.894531 342.722656 173.707031 L 342.722656 160.867188 C 342.722656 159.679688 341.757812 158.714844 340.566406 158.714844 C 339.371094 158.714844 338.40625 159.679688 338.40625 160.867188 Z M 338.40625 186.542969 L 338.40625 199.375 C 338.40625 200.570312 339.371094 201.535156 340.566406 201.535156 C 341.757812 201.535156 342.722656 200.570312 342.722656 199.375 L 342.722656 186.542969 C 342.722656 185.347656 341.757812 184.382812 340.566406 184.382812 C 339.371094 184.382812 338.40625 185.347656 338.40625 186.542969 Z M 338.40625 212.214844 L 338.40625 225.050781 C 338.40625 226.242188 339.371094 227.207031 340.566406 227.207031 C 341.757812 227.207031 342.722656 226.242188 342.722656 225.050781 L 342.722656 212.214844 C 342.722656 211.023438 341.757812 210.058594 340.566406 210.058594 C 339.371094 210.058594 338.40625 211.023438 338.40625 212.214844 Z M 338.40625 237.882812 L 338.40625 250.722656 C 338.40625 251.910156 339.371094 252.882812 340.566406 252.882812 C 341.757812 252.882812 342.722656 251.910156 342.722656 250.722656 L 342.722656 237.882812 C 342.722656 236.695312 341.757812 235.730469 340.566406 235.730469 C 339.371094 235.730469 338.40625 236.695312 338.40625 237.882812 Z M 338.40625 263.558594 L 338.40625 276.394531 C 338.40625 277.585938 339.371094 278.550781 340.566406 278.550781 C 341.757812 278.550781 342.722656 277.585938 342.722656 276.394531 L 342.722656 263.558594 C 342.722656 262.367188 341.757812 261.398438 340.566406 261.398438 C 339.371094 261.398438 338.40625 262.367188 338.40625 263.558594 Z M 338.40625 289.230469 L 338.40625 302.066406 C 338.40625 303.257812 339.371094 304.222656 340.566406 304.222656 C 341.757812 304.222656 342.722656 303.257812 342.722656 302.066406 L 342.722656 289.230469 C 342.722656 288.039062 341.757812 287.074219 340.566406 287.074219 C 339.371094 287.074219 338.40625 288.039062 338.40625 289.230469 Z M 338.40625 314.902344 L 338.40625 327.738281 C 338.40625 328.929688 339.371094 329.894531 340.566406 329.894531 C 341.757812 329.894531 342.722656 328.929688 342.722656 327.738281 L 342.722656 314.902344 C 342.722656 313.710938 341.757812 312.746094 340.566406 312.746094 C 339.371094 312.746094 338.40625 313.710938 338.40625 314.902344 Z M 338.40625 340.574219 L 338.40625 346.949219 C 338.40625 348.78125 337.882812 350.476562 336.96875 351.917969 C 336.328125 352.921875 336.628906 354.257812 337.632812 354.890625 C 338.640625 355.53125 339.972656 355.230469 340.613281 354.226562 C 341.945312 352.121094 342.722656 349.617188 342.722656 346.949219 L 342.722656 340.574219 C 342.722656 339.382812 341.757812 338.417969 340.566406 338.417969 C 339.371094 338.417969 338.40625 339.382812 338.40625 340.574219 Z M 327.804688 356.242188 L 314.972656 356.242188 C 313.777344 356.242188 312.8125 357.207031 312.8125 358.402344 C 312.8125 359.589844 313.777344 360.554688 314.972656 360.554688 L 327.804688 360.554688 C 329 360.554688 329.964844 359.589844 329.964844 358.402344 C 329.964844 357.207031 329 356.242188 327.804688 356.242188 Z M 302.132812 356.242188 L 289.296875 356.242188 C 288.105469 356.242188 287.140625 357.207031 287.140625 358.402344 C 287.140625 359.589844 288.105469 360.554688 289.296875 360.554688 L 302.132812 360.554688 C 303.324219 360.554688 304.289062 359.589844 304.289062 358.402344 C 304.289062 357.207031 303.324219 356.242188 302.132812 356.242188 Z M 276.464844 356.242188 L 263.625 356.242188 C 262.4375 356.242188 261.472656 357.207031 261.472656 358.402344 C 261.472656 359.589844 262.4375 360.554688 263.625 360.554688 L 276.464844 360.554688 C 277.652344 360.554688 278.617188 359.589844 278.617188 358.402344 C 278.617188 357.207031 277.652344 356.242188 276.464844 356.242188 Z M 250.789062 356.242188 L 237.957031 356.242188 C 236.761719 356.242188 235.796875 357.207031 235.796875 358.402344 C 235.796875 359.589844 236.761719 360.554688 237.957031 360.554688 L 250.789062 360.554688 C 251.980469 360.554688 252.949219 359.589844 252.949219 358.402344 C 252.949219 357.207031 251.980469 356.242188 250.789062 356.242188 Z M 225.117188 356.242188 L 212.28125 356.242188 C 211.089844 356.242188 210.125 357.207031 210.125 358.402344 C 210.125 359.589844 211.089844 360.554688 212.28125 360.554688 L 225.117188 360.554688 C 226.308594 360.554688 227.273438 359.589844 227.273438 358.402344 C 227.273438 357.207031 226.308594 356.242188 225.117188 356.242188 Z M 199.445312 356.242188 L 186.609375 356.242188 C 185.417969 356.242188 184.453125 357.207031 184.453125 358.402344 C 184.453125 359.589844 185.417969 360.554688 186.609375 360.554688 L 199.445312 360.554688 C 200.636719 360.554688 201.601562 359.589844 201.601562 358.402344 C 201.601562 357.207031 200.636719 356.242188 199.445312 356.242188 Z M 173.773438 356.242188 L 160.9375 356.242188 C 159.746094 356.242188 158.78125 357.207031 158.78125 358.402344 C 158.78125 359.589844 159.746094 360.554688 160.9375 360.554688 L 173.773438 360.554688 C 174.964844 360.554688 175.929688 359.589844 175.929688 358.402344 C 175.929688 357.207031 174.964844 356.242188 173.773438 356.242188 Z M 148.105469 356.242188 L 135.265625 356.242188 C 134.070312 356.242188 133.105469 357.207031 133.105469 358.402344 C 133.105469 359.589844 134.070312 360.554688 135.265625 360.554688 L 148.105469 360.554688 C 149.292969 360.554688 150.257812 359.589844 150.257812 358.402344 C 150.257812 357.207031 149.292969 356.242188 148.105469 356.242188 Z M 122.429688 356.242188 L 109.589844 356.242188 C 108.402344 356.242188 107.4375 357.207031 107.4375 358.402344 C 107.4375 359.589844 108.402344 360.554688 109.589844 360.554688 L 122.429688 360.554688 C 123.617188 360.554688 124.589844 359.589844 124.589844 358.402344 C 124.589844 357.207031 123.617188 356.242188 122.429688 356.242188 Z M 96.757812 356.242188 L 83.921875 356.242188 C 82.730469 356.242188 81.761719 357.207031 81.761719 358.402344 C 81.761719 359.589844 82.730469 360.554688 83.921875 360.554688 L 96.757812 360.554688 C 97.949219 360.554688 98.914062 359.589844 98.914062 358.402344 C 98.914062 357.207031 97.949219 356.242188 96.757812 356.242188 Z M 71.082031 356.242188 L 58.246094 356.242188 C 57.054688 356.242188 56.089844 357.207031 56.089844 358.402344 C 56.089844 359.589844 57.054688 360.554688 58.246094 360.554688 L 71.082031 360.554688 C 72.277344 360.554688 73.242188 359.589844 73.242188 358.402344 C 73.242188 357.207031 72.277344 356.242188 71.082031 356.242188 Z M 45.414062 356.242188 L 32.574219 356.242188 C 31.386719 356.242188 30.421875 357.207031 30.421875 358.402344 C 30.421875 359.589844 31.386719 360.554688 32.574219 360.554688 L 45.414062 360.554688 C 46.601562 360.554688 47.566406 359.589844 47.566406 358.402344 C 47.566406 357.207031 46.601562 356.242188 45.414062 356.242188 " fill-opacity="1" fill-rule="nonzero"/><path fill="#ffffff" d="M 19.71875 356.242188 L 13.25 356.242188 C 12.058594 356.242188 11.09375 357.207031 11.09375 358.402344 C 11.09375 359.589844 12.058594 360.554688 13.25 360.554688 L 19.71875 360.554688 C 20.914062 360.554688 21.878906 359.589844 21.878906 358.402344 C 21.878906 357.207031 20.914062 356.242188 19.71875 356.242188 " fill-opacity="1" fill-rule="nonzero"/><path fill="#7e5955" d="M 293.621094 208.789062 C 270.988281 208.789062 252.648438 227.140625 252.648438 249.765625 C 252.648438 272.398438 270.988281 290.742188 293.621094 290.742188 L 374.488281 290.742188 L 374.488281 208.789062 L 293.621094 208.789062 " fill-opacity="1" fill-rule="nonzero"/><path fill="#ffbd59" d="M 318.964844 249.765625 C 318.964844 264 307.421875 275.535156 293.195312 275.535156 C 278.964844 275.535156 267.425781 264 267.425781 249.765625 C 267.425781 235.539062 278.964844 224 293.195312 224 C 307.421875 224 318.964844 235.539062 318.964844 249.765625 " fill-opacity="1" fill-rule="nonzero"/><path stroke-linecap="butt" transform="matrix(0.75, 0, 0, 0.75, 282.331186, 223.026593)" fill="none" stroke-linejoin="miter" d="M 17.251128 32.204129 C 17.02717 34.334337 16.188628 36.032254 14.740711 37.297879 C 13.287586 38.563504 11.225086 39.396838 8.553211 39.797879 L 18.954253 52.001005 L 13.907378 52.001005 L 3.532377 39.865588 L 4.011544 36.360379 L 6.219877 36.360379 C 7.886544 36.360379 9.162586 36.219754 10.053211 35.938504 C 10.943836 35.662462 11.652169 35.204129 12.178211 34.568712 C 12.709461 33.938504 13.05842 33.152045 13.235503 32.204129 L 3.532377 32.204129 L 3.532377 28.69892 L 13.188628 28.69892 C 13.011545 27.849962 12.667795 27.126003 12.157378 26.521837 C 11.641753 25.922878 10.990711 25.501003 10.199044 25.26142 C 9.407378 25.021837 8.271961 24.902045 6.798002 24.902045 L 3.532377 24.902045 L 3.532377 21.391628 L 24.287587 21.391628 L 24.287587 24.902045 L 15.063628 24.902045 C 16.199045 25.735378 16.923003 27.001003 17.225087 28.69892 L 24.287587 28.69892 L 24.287587 32.204129 Z M 17.251128 32.204129 " stroke="#000000" stroke-width="3.075356" stroke-opacity="1" stroke-miterlimit="4"/><g fill="#ffffff" fill-opacity="1"><g transform="translate(282.331186, 262.02659)"><g><path d="M 12.9375 -14.84375 C 12.769531 -13.25 12.140625 -11.976562 11.046875 -11.03125 C 9.960938 -10.082031 8.421875 -9.457031 6.421875 -9.15625 L 14.21875 0 L 10.4375 0 L 2.65625 -9.09375 L 3.015625 -11.734375 L 4.671875 -11.734375 C 5.921875 -11.734375 6.878906 -11.835938 7.546875 -12.046875 C 8.210938 -12.253906 8.742188 -12.59375 9.140625 -13.0625 C 9.535156 -13.539062 9.796875 -14.132812 9.921875 -14.84375 L 2.65625 -14.84375 L 2.65625 -17.484375 L 9.890625 -17.484375 C 9.753906 -18.117188 9.492188 -18.660156 9.109375 -19.109375 C 8.734375 -19.554688 8.242188 -19.867188 7.640625 -20.046875 C 7.046875 -20.234375 6.195312 -20.328125 5.09375 -20.328125 L 2.65625 -20.328125 L 2.65625 -22.953125 L 18.21875 -22.953125 L 18.21875 -20.328125 L 11.296875 -20.328125 C 12.148438 -19.703125 12.691406 -18.753906 12.921875 -17.484375 L 18.21875 -17.484375 L 18.21875 -14.84375 Z M 12.9375 -14.84375 "/></g></g></g></svg>