<svg xmlns="http://www.w3.org/2000/svg" xmlns:xlink="http://www.w3.org/1999/xlink" width="500" zoomAndPan="magnify" viewBox="0 0 375 374.999991" height="500" preserveAspectRatio="xMidYMid meet" version="1.0"><defs><clipPath id="db43d55a98"><path d="M 39 169 L 116 169 L 116 255 L 39 255 Z M 39 169 " clip-rule="nonzero"/></clipPath><clipPath id="fb4a47a832"><path d="M 34.644531 174.355469 L 116.003906 169.023438 L 121.316406 250.054688 L 39.957031 255.386719 Z M 34.644531 174.355469 " clip-rule="nonzero"/></clipPath><clipPath id="c02c1a21c5"><path d="M 52.113281 248.28125 C 51.886719 244.808594 48.886719 242.183594 45.417969 242.410156 C 41.945312 242.636719 39.316406 245.632812 39.546875 249.105469 C 39.773438 252.574219 42.769531 255.203125 46.242188 254.976562 C 49.710938 254.75 52.339844 251.75 52.113281 248.28125 Z M 43.699219 246.824219 C 42.667969 248 42.785156 249.792969 43.960938 250.824219 C 45.136719 251.855469 46.929688 251.738281 47.960938 250.5625 L 114.53125 174.644531 C 115.566406 173.46875 115.445312 171.679688 114.269531 170.648438 C 113.09375 169.617188 111.304688 169.734375 110.273438 170.910156 Z M 43.699219 246.824219 " clip-rule="nonzero"/></clipPath><clipPath id="ebeb987ec4"><path d="M 106 166 L 189 166 L 189 198 L 106 198 Z M 106 166 " clip-rule="nonzero"/></clipPath><clipPath id="b99641e094"><path d="M 105.324219 166.332031 L 186.683594 161 L 189.117188 198.136719 L 107.757812 203.472656 Z M 105.324219 166.332031 " clip-rule="nonzero"/></clipPath><clipPath id="635d888de4"><path d="M 118.6875 172.367188 C 118.457031 168.894531 115.460938 166.265625 111.992188 166.496094 C 108.519531 166.722656 105.890625 169.71875 106.117188 173.191406 C 106.347656 176.660156 109.34375 179.289062 112.8125 179.0625 C 116.285156 178.832031 118.914062 175.835938 118.6875 172.367188 Z M 113.222656 170.066406 C 111.722656 169.613281 110.140625 170.460938 109.691406 171.957031 C 109.238281 173.457031 110.085938 175.039062 111.582031 175.492188 L 184.578125 197.535156 C 186.078125 197.988281 187.65625 197.140625 188.109375 195.644531 C 188.5625 194.144531 187.714844 192.5625 186.21875 192.109375 Z M 113.222656 170.066406 " clip-rule="nonzero"/></clipPath><clipPath id="2dd96b68a7"><path d="M 179 80 L 253 80 L 253 202 L 179 202 Z M 179 80 " clip-rule="nonzero"/></clipPath><clipPath id="216a7663b6"><path d="M 171.175781 84.707031 L 253.695312 79.296875 L 261.398438 196.789062 L 178.878906 202.199219 Z M 171.175781 84.707031 " clip-rule="nonzero"/></clipPath><clipPath id="caa54491d8"><path d="M 191.679688 194.410156 C 191.453125 190.941406 188.457031 188.3125 184.984375 188.539062 C 181.515625 188.769531 178.886719 191.765625 179.113281 195.234375 C 179.34375 198.707031 182.339844 201.335938 185.808594 201.105469 C 189.28125 200.878906 191.910156 197.882812 191.679688 194.410156 Z M 182.941406 193.410156 C 182.160156 194.765625 182.628906 196.496094 183.984375 197.277344 C 185.339844 198.058594 187.070312 197.59375 187.851562 196.238281 L 252.089844 84.699219 C 252.871094 83.34375 252.40625 81.613281 251.050781 80.832031 C 249.695312 80.050781 247.960938 80.515625 247.179688 81.871094 Z M 182.941406 193.410156 " clip-rule="nonzero"/></clipPath><clipPath id="ac31f27de3"><path d="M 243 63 L 327 63 L 327 90 L 243 90 Z M 243 63 " clip-rule="nonzero"/></clipPath><clipPath id="b65b19a276"><path d="M 241.320312 68.578125 L 326.167969 63.015625 L 327.582031 84.625 L 242.738281 90.1875 Z M 241.320312 68.578125 " clip-rule="nonzero"/></clipPath><clipPath id="d321af4880"><path d="M 255.917969 82.875 C 255.691406 79.40625 252.695312 76.777344 249.222656 77.003906 C 245.753906 77.230469 243.125 80.226562 243.351562 83.699219 C 243.578125 87.167969 246.578125 89.796875 250.046875 89.570312 C 253.519531 89.34375 256.144531 86.34375 255.917969 82.875 Z M 249.101562 80.503906 C 247.5625 80.800781 246.558594 82.285156 246.851562 83.820312 C 247.148438 85.359375 248.632812 86.363281 250.171875 86.070312 L 320.832031 72.492188 C 322.367188 72.199219 323.375 70.710938 323.078125 69.175781 C 322.78125 67.640625 321.296875 66.632812 319.761719 66.925781 Z M 326.578125 69.296875 C 326.351562 65.828125 323.355469 63.199219 319.882812 63.425781 C 316.414062 63.65625 313.785156 66.652344 314.011719 70.121094 C 314.238281 73.59375 317.238281 76.222656 320.707031 75.992188 C 324.179688 75.765625 326.804688 72.769531 326.578125 69.296875 Z M 326.578125 69.296875 " clip-rule="nonzero"/></clipPath><clipPath id="b5cf3a42f8"><path d="M 71.367188 242.070312 L 115 242.070312 L 115 279.929688 L 71.367188 279.929688 Z M 71.367188 242.070312 " clip-rule="nonzero"/></clipPath><clipPath id="758729f507"><path d="M 71.867188 279.929688 L 71.867188 246.195312 C 71.800781 245.242188 72.132812 244.304688 72.78125 243.605469 C 73.433594 242.90625 74.347656 242.511719 75.300781 242.511719 L 111.359375 242.511719 C 112.3125 242.511719 113.226562 242.90625 113.878906 243.605469 C 114.53125 244.304688 114.859375 245.242188 114.792969 246.195312 L 114.792969 279.929688 Z M 71.867188 279.929688 " clip-rule="nonzero"/></clipPath><clipPath id="6103ec9ede"><path d="M 120.539062 205.691406 L 163.808594 205.691406 L 163.808594 279.929688 L 120.539062 279.929688 Z M 120.539062 205.691406 " clip-rule="nonzero"/></clipPath><clipPath id="01f64479ce"><path d="M 120.753906 279.929688 L 120.753906 209.273438 C 120.753906 207.375 122.292969 205.835938 124.1875 205.835938 L 160.246094 205.835938 C 161.15625 205.835938 162.027344 206.199219 162.671875 206.84375 C 163.316406 207.488281 163.679688 208.359375 163.679688 209.273438 L 163.679688 279.929688 Z M 120.753906 279.929688 " clip-rule="nonzero"/></clipPath><clipPath id="ba572c8f30"><path d="M 169.21875 216.507812 L 212.980469 216.507812 L 212.980469 279.929688 L 169.21875 279.929688 Z M 169.21875 216.507812 " clip-rule="nonzero"/></clipPath><clipPath id="716f2455ed"><path d="M 169.640625 279.929688 L 169.640625 220.347656 C 169.640625 218.453125 171.179688 216.914062 173.074219 216.914062 L 209.132812 216.914062 C 211.027344 216.914062 212.566406 218.453125 212.566406 220.347656 L 212.566406 279.929688 Z M 169.640625 279.929688 " clip-rule="nonzero"/></clipPath><clipPath id="76100e88fc"><path d="M 218.386719 161.441406 L 261.660156 161.441406 L 261.660156 279.929688 L 218.386719 279.929688 Z M 218.386719 161.441406 " clip-rule="nonzero"/></clipPath><clipPath id="53cb4699a6"><path d="M 218.527344 279.929688 L 218.527344 164.964844 C 218.527344 163.070312 220.0625 161.53125 221.960938 161.53125 L 258.015625 161.53125 C 259.914062 161.53125 261.453125 163.070312 261.453125 164.964844 L 261.453125 279.929688 Z M 218.527344 279.929688 " clip-rule="nonzero"/></clipPath><clipPath id="0380c9891c"><path d="M 267.066406 95.070312 L 310.335938 95.070312 L 310.335938 279.929688 L 267.066406 279.929688 Z M 267.066406 95.070312 " clip-rule="nonzero"/></clipPath><clipPath id="256f930e63"><path d="M 267.414062 279.929688 L 267.414062 98.507812 C 267.414062 96.609375 268.949219 95.070312 270.847656 95.070312 L 306.902344 95.070312 C 308.800781 95.070312 310.335938 96.609375 310.335938 98.507812 L 310.335938 279.929688 Z M 267.414062 279.929688 " clip-rule="nonzero"/></clipPath><clipPath id="abc3982163"><path d="M 71.867188 261.222656 L 114.792969 261.222656 L 114.792969 279.929688 L 71.867188 279.929688 Z M 71.867188 261.222656 " clip-rule="nonzero"/></clipPath><clipPath id="432fce52ad"><path d="M 120.753906 220.65625 L 163.679688 220.65625 L 163.679688 279.929688 L 120.753906 279.929688 Z M 120.753906 220.65625 " clip-rule="nonzero"/></clipPath><clipPath id="909093f789"><path d="M 169.640625 231.742188 L 212.566406 231.742188 L 212.566406 279.929688 L 169.640625 279.929688 Z M 169.640625 231.742188 " clip-rule="nonzero"/></clipPath><clipPath id="35a3e2cabd"><path d="M 218.527344 191.128906 L 261.453125 191.128906 L 261.453125 279.929688 L 218.527344 279.929688 Z M 218.527344 191.128906 " clip-rule="nonzero"/></clipPath><clipPath id="ff1ea3490b"><path d="M 267.414062 124.648438 L 310.335938 124.648438 L 310.335938 279.929688 L 267.414062 279.929688 Z M 267.414062 124.648438 " clip-rule="nonzero"/></clipPath><clipPath id="fa1102856a"><path d="M 120.753906 250.292969 L 163.679688 250.292969 L 163.679688 279.929688 L 120.753906 279.929688 Z M 120.753906 250.292969 " clip-rule="nonzero"/></clipPath><clipPath id="79ec48ede8"><path d="M 169.640625 253.980469 L 212.566406 253.980469 L 212.566406 279.929688 L 169.640625 279.929688 Z M 169.640625 253.980469 " clip-rule="nonzero"/></clipPath><clipPath id="5f25cfdfe1"><path d="M 218.527344 235.527344 L 261.453125 235.527344 L 261.453125 279.929688 L 218.527344 279.929688 Z M 218.527344 235.527344 " clip-rule="nonzero"/></clipPath><clipPath id="614a1556c5"><path d="M 267.414062 198.589844 L 310.335938 198.589844 L 310.335938 279.929688 L 267.414062 279.929688 Z M 267.414062 198.589844 " clip-rule="nonzero"/></clipPath></defs><g clip-path="url(#db43d55a98)"><g clip-path="url(#fb4a47a832)"><g clip-path="url(#c02c1a21c5)"><path fill="#ff5757" d="M 28.625 82.523438 L 326.167969 63.015625 L 337.5 235.878906 L 39.957031 255.386719 Z M 28.625 82.523438 " fill-opacity="1" fill-rule="nonzero"/></g></g></g><g clip-path="url(#ebeb987ec4)"><g clip-path="url(#b99641e094)"><g clip-path="url(#635d888de4)"><path fill="#ff5757" d="M 28.625 82.523438 L 326.167969 63.015625 L 337.5 235.878906 L 39.957031 255.386719 Z M 28.625 82.523438 " fill-opacity="1" fill-rule="nonzero"/></g></g></g><g clip-path="url(#2dd96b68a7)"><g clip-path="url(#216a7663b6)"><g clip-path="url(#caa54491d8)"><path fill="#ff5757" d="M 28.625 82.523438 L 326.167969 63.015625 L 337.5 235.878906 L 39.957031 255.386719 Z M 28.625 82.523438 " fill-opacity="1" fill-rule="nonzero"/></g></g></g><g clip-path="url(#ac31f27de3)"><g clip-path="url(#b65b19a276)"><g clip-path="url(#d321af4880)"><path fill="#ff5757" d="M 28.625 82.523438 L 326.167969 63.015625 L 337.5 235.878906 L 39.957031 255.386719 Z M 28.625 82.523438 " fill-opacity="1" fill-rule="nonzero"/></g></g></g><g clip-path="url(#b5cf3a42f8)"><g clip-path="url(#758729f507)"><path fill="#05b460" d="M 71.859375 95.070312 L 310.335938 95.070312 L 310.335938 279.929688 L 71.859375 279.929688 Z M 71.859375 95.070312 " fill-opacity="1" fill-rule="nonzero"/></g></g><g clip-path="url(#6103ec9ede)"><g clip-path="url(#01f64479ce)"><path fill="#05b460" d="M 71.859375 95.070312 L 310.335938 95.070312 L 310.335938 279.929688 L 71.859375 279.929688 Z M 71.859375 95.070312 " fill-opacity="1" fill-rule="nonzero"/></g></g><g clip-path="url(#ba572c8f30)"><g clip-path="url(#716f2455ed)"><path fill="#05b460" d="M 71.859375 95.070312 L 310.335938 95.070312 L 310.335938 279.929688 L 71.859375 279.929688 Z M 71.859375 95.070312 " fill-opacity="1" fill-rule="nonzero"/></g></g><g clip-path="url(#76100e88fc)"><g clip-path="url(#53cb4699a6)"><path fill="#05b460" d="M 71.859375 95.070312 L 310.335938 95.070312 L 310.335938 279.929688 L 71.859375 279.929688 Z M 71.859375 95.070312 " fill-opacity="1" fill-rule="nonzero"/></g></g><g clip-path="url(#0380c9891c)"><g clip-path="url(#256f930e63)"><path fill="#05b460" d="M 71.859375 95.070312 L 310.335938 95.070312 L 310.335938 279.929688 L 71.859375 279.929688 Z M 71.859375 95.070312 " fill-opacity="1" fill-rule="nonzero"/></g></g><g clip-path="url(#abc3982163)"><path fill="#7ed957" d="M 71.859375 95.070312 L 310.335938 95.070312 L 310.335938 279.929688 L 71.859375 279.929688 Z M 71.859375 95.070312 " fill-opacity="1" fill-rule="nonzero"/></g><g clip-path="url(#432fce52ad)"><path fill="#7ed957" d="M 71.859375 95.070312 L 310.335938 95.070312 L 310.335938 279.929688 L 71.859375 279.929688 Z M 71.859375 95.070312 " fill-opacity="1" fill-rule="nonzero"/></g><g clip-path="url(#909093f789)"><path fill="#7ed957" d="M 71.859375 95.070312 L 310.335938 95.070312 L 310.335938 279.929688 L 71.859375 279.929688 Z M 71.859375 95.070312 " fill-opacity="1" fill-rule="nonzero"/></g><g clip-path="url(#35a3e2cabd)"><path fill="#7ed957" d="M 71.859375 95.070312 L 310.335938 95.070312 L 310.335938 279.929688 L 71.859375 279.929688 Z M 71.859375 95.070312 " fill-opacity="1" fill-rule="nonzero"/></g><g clip-path="url(#ff1ea3490b)"><path fill="#7ed957" d="M 71.859375 95.070312 L 310.335938 95.070312 L 310.335938 279.929688 L 71.859375 279.929688 Z M 71.859375 95.070312 " fill-opacity="1" fill-rule="nonzero"/></g><g clip-path="url(#fa1102856a)"><path fill="#c1ff72" d="M 71.859375 95.070312 L 310.335938 95.070312 L 310.335938 279.929688 L 71.859375 279.929688 Z M 71.859375 95.070312 " fill-opacity="1" fill-rule="nonzero"/></g><g clip-path="url(#79ec48ede8)"><path fill="#c1ff72" d="M 71.859375 95.070312 L 310.335938 95.070312 L 310.335938 279.929688 L 71.859375 279.929688 Z M 71.859375 95.070312 " fill-opacity="1" fill-rule="nonzero"/></g><g clip-path="url(#5f25cfdfe1)"><path fill="#c1ff72" d="M 71.859375 95.070312 L 310.335938 95.070312 L 310.335938 279.929688 L 71.859375 279.929688 Z M 71.859375 95.070312 " fill-opacity="1" fill-rule="nonzero"/></g><g clip-path="url(#614a1556c5)"><path fill="#c1ff72" d="M 71.859375 95.070312 L 310.335938 95.070312 L 310.335938 279.929688 L 71.859375 279.929688 Z M 71.859375 95.070312 " fill-opacity="1" fill-rule="nonzero"/></g></svg>