<svg xmlns="http://www.w3.org/2000/svg" xmlns:xlink="http://www.w3.org/1999/xlink" width="500" zoomAndPan="magnify" viewBox="0 0 375 374.999991" height="500" preserveAspectRatio="xMidYMid meet" version="1.0"><defs><filter x="0%" y="0%" width="100%" height="100%" id="00413a0277"><feColorMatrix values="0 0 0 0 1 0 0 0 0 1 0 0 0 0 1 0 0 0 1 0" color-interpolation-filters="sRGB"/></filter><clipPath id="8f00f0b1f9"><path d="M 7 142 L 103 142 L 103 252 L 7 252 Z M 7 142 " clip-rule="nonzero"/></clipPath><clipPath id="b444003549"><path d="M 0.90625 147.984375 L 103.234375 141.277344 L 110.058594 245.40625 L 7.734375 252.113281 Z M 0.90625 147.984375 " clip-rule="nonzero"/></clipPath><clipPath id="c3018ef6af"><path d="M 23.398438 242.953125 C 23.105469 238.484375 19.242188 235.09375 14.769531 235.386719 C 10.296875 235.679688 6.910156 239.542969 7.203125 244.015625 C 7.496094 248.488281 11.359375 251.875 15.832031 251.582031 C 20.304688 251.289062 23.691406 247.425781 23.398438 242.953125 Z M 12.527344 241.109375 C 11.214844 242.640625 11.390625 244.945312 12.921875 246.257812 C 14.453125 247.570312 16.757812 247.394531 18.074219 245.863281 L 101.578125 148.460938 C 102.890625 146.929688 102.714844 144.625 101.183594 143.3125 C 99.652344 142 97.347656 142.175781 96.035156 143.707031 Z M 12.527344 241.109375 " clip-rule="nonzero"/></clipPath><clipPath id="2ba830835b"><path d="M 90 137 L 195 137 L 195 179 L 90 179 Z M 90 137 " clip-rule="nonzero"/></clipPath><clipPath id="8751a480b1"><path d="M 89.792969 137.800781 L 192.117188 131.089844 L 195.246094 178.816406 L 92.921875 185.523438 Z M 89.792969 137.800781 " clip-rule="nonzero"/></clipPath><clipPath id="ef5260f78f"><path d="M 106.902344 145.554688 C 106.609375 141.082031 102.746094 137.695312 98.273438 137.988281 C 93.804688 138.28125 90.414062 142.144531 90.707031 146.617188 C 91 151.085938 94.863281 154.476562 99.335938 154.183594 C 103.808594 153.890625 107.195312 150.027344 106.902344 145.554688 Z M 99.886719 142.597656 C 97.960938 142 95.914062 143.078125 95.316406 145.003906 C 94.71875 146.929688 95.796875 148.976562 97.722656 149.574219 L 189.480469 178.027344 C 191.40625 178.625 193.453125 177.550781 194.050781 175.621094 C 194.648438 173.695312 193.570312 171.652344 191.644531 171.054688 Z M 99.886719 142.597656 " clip-rule="nonzero"/></clipPath><clipPath id="912deb5b75"><path d="M 182 27 L 275 27 L 275 183 L 182 183 Z M 182 27 " clip-rule="nonzero"/></clipPath><clipPath id="4dca680090"><path d="M 172.476562 33.03125 L 276.265625 26.226562 L 286.164062 177.214844 L 182.375 184.019531 Z M 172.476562 33.03125 " clip-rule="nonzero"/></clipPath><clipPath id="55109af7af"><path d="M 198.660156 174.011719 C 198.367188 169.539062 194.503906 166.152344 190.03125 166.445312 C 185.558594 166.738281 182.171875 170.601562 182.464844 175.070312 C 182.757812 179.542969 186.621094 182.933594 191.09375 182.636719 C 195.566406 182.34375 198.953125 178.480469 198.660156 174.011719 Z M 187.378906 172.75 C 186.390625 174.507812 187.015625 176.734375 188.773438 177.722656 C 190.53125 178.710938 192.757812 178.089844 193.746094 176.332031 L 274.25 33.164062 C 275.238281 31.40625 274.613281 29.179688 272.855469 28.191406 C 271.097656 27.203125 268.871094 27.828125 267.882812 29.585938 Z M 187.378906 172.75 " clip-rule="nonzero"/></clipPath><clipPath id="b4973b2a58"><path d="M 262 5 L 368 5 L 368 40 L 262 40 Z M 262 5 " clip-rule="nonzero"/></clipPath><clipPath id="236e34ea91"><path d="M 260.679688 12.433594 L 367.390625 5.4375 L 369.210938 33.203125 L 262.5 40.199219 Z M 260.679688 12.433594 " clip-rule="nonzero"/></clipPath><clipPath id="70b54e3311"><path d="M 279.164062 30.84375 C 278.871094 26.371094 275.007812 22.984375 270.535156 23.277344 C 266.066406 23.570312 262.675781 27.433594 262.96875 31.90625 C 263.261719 36.378906 267.125 39.765625 271.597656 39.472656 C 276.070312 39.179688 279.457031 35.316406 279.164062 30.84375 Z M 270.367188 27.789062 C 268.390625 28.175781 267.097656 30.09375 267.484375 32.074219 C 267.871094 34.054688 269.785156 35.34375 271.765625 34.957031 L 360.523438 17.648438 C 362.503906 17.261719 363.792969 15.34375 363.40625 13.367188 C 363.023438 11.386719 361.105469 10.09375 359.125 10.480469 Z M 367.921875 13.535156 C 367.628906 9.0625 363.765625 5.675781 359.292969 5.96875 C 354.820312 6.261719 351.433594 10.125 351.726562 14.59375 C 352.019531 19.066406 355.882812 22.457031 360.355469 22.160156 C 364.828125 21.867188 368.214844 18.003906 367.921875 13.535156 Z M 367.921875 13.535156 " clip-rule="nonzero"/></clipPath><mask id="62ae177972"><g filter="url(#00413a0277)"><rect x="-37.5" width="450" fill="#000000" y="-37.499999" height="449.999989" fill-opacity="0.11"/></g></mask><clipPath id="ff2a509390"><path d="M 0 264.117188 L 50.28125 264.117188 L 50.28125 331 L 0 331 Z M 0 264.117188 " clip-rule="nonzero"/></clipPath><clipPath id="54f53bc883"><path d="M -6.824219 331 L -6.824219 274.976562 C -6.925781 272.191406 -5.890625 269.484375 -3.953125 267.476562 C -2.019531 265.472656 0.648438 264.339844 3.4375 264.339844 L 39.914062 264.339844 C 42.703125 264.339844 45.371094 265.472656 47.304688 267.476562 C 49.242188 269.484375 50.277344 272.191406 50.175781 274.976562 L 50.175781 331 Z M -6.824219 331 " clip-rule="nonzero"/></clipPath><clipPath id="0cec2c6312"><path d="M 72.074219 198.734375 L 129.941406 198.734375 L 129.941406 331 L 72.074219 331 Z M 72.074219 198.734375 " clip-rule="nonzero"/></clipPath><clipPath id="f503bda1b6"><path d="M 72.671875 331 L 72.671875 209.070312 C 72.671875 206.347656 73.753906 203.738281 75.679688 201.816406 C 77.601562 199.890625 80.210938 198.808594 82.933594 198.808594 L 119.410156 198.808594 C 122.132812 198.808594 124.742188 199.890625 126.667969 201.816406 C 128.589844 203.738281 129.671875 206.347656 129.671875 209.070312 L 129.671875 331 Z M 72.671875 331 " clip-rule="nonzero"/></clipPath><clipPath id="ebfc7683e6"><path d="M 152 218.273438 L 209.597656 218.273438 L 209.597656 331 L 152 331 Z M 152 218.273438 " clip-rule="nonzero"/></clipPath><clipPath id="4d86bf0a55"><path d="M 152.171875 331 L 152.171875 228.839844 C 152.171875 226.121094 153.25 223.511719 155.175781 221.585938 C 157.101562 219.664062 159.710938 218.582031 162.429688 218.582031 L 198.910156 218.582031 C 201.628906 218.582031 204.238281 219.664062 206.164062 221.585938 C 208.085938 223.511719 209.167969 226.121094 209.167969 228.839844 L 209.167969 331 Z M 152.171875 331 " clip-rule="nonzero"/></clipPath><clipPath id="5b5f5d4281"><path d="M 231.390625 119.074219 L 289 119.074219 L 289 331 L 231.390625 331 Z M 231.390625 119.074219 " clip-rule="nonzero"/></clipPath><clipPath id="ef95de9461"><path d="M 231.667969 331 L 231.667969 129.980469 C 231.667969 124.316406 236.261719 119.722656 241.925781 119.722656 L 278.40625 119.722656 C 284.074219 119.722656 288.664062 124.316406 288.664062 129.980469 L 288.664062 331 Z M 231.667969 331 " clip-rule="nonzero"/></clipPath><clipPath id="ed3751111d"><path d="M 311.050781 1.089844 L 368.164062 1.089844 L 368.164062 331 L 311.050781 331 Z M 311.050781 1.089844 " clip-rule="nonzero"/></clipPath><clipPath id="be2fbd0aab"><path d="M 311.164062 331 L 311.164062 11.347656 C 311.164062 5.683594 315.757812 1.089844 321.425781 1.089844 L 357.902344 1.089844 C 363.570312 1.089844 368.164062 5.683594 368.164062 11.347656 L 368.164062 331 Z M 311.164062 331 " clip-rule="nonzero"/></clipPath><clipPath id="c538ab5c59"><path d="M 0 297.671875 L 50.175781 297.671875 L 50.175781 331 L 0 331 Z M 0 297.671875 " clip-rule="nonzero"/></clipPath><clipPath id="5f95ab77a3"><path d="M 72.671875 225.246094 L 129.671875 225.246094 L 129.671875 331 L 72.671875 331 Z M 72.671875 225.246094 " clip-rule="nonzero"/></clipPath><clipPath id="e5f82a6681"><path d="M 152.171875 245.035156 L 209.167969 245.035156 L 209.167969 331 L 152.171875 331 Z M 152.171875 245.035156 " clip-rule="nonzero"/></clipPath><clipPath id="12fbe01a0a"><path d="M 231.667969 172.539062 L 288.664062 172.539062 L 288.664062 331 L 231.667969 331 Z M 231.667969 172.539062 " clip-rule="nonzero"/></clipPath><clipPath id="d91ca56c75"><path d="M 311.164062 53.875 L 368.164062 53.875 L 368.164062 331 L 311.164062 331 Z M 311.164062 53.875 " clip-rule="nonzero"/></clipPath><clipPath id="f134c05762"><path d="M 72.671875 278.125 L 129.671875 278.125 L 129.671875 331 L 72.671875 331 Z M 72.671875 278.125 " clip-rule="nonzero"/></clipPath><clipPath id="92e0f1a373"><path d="M 152.171875 284.710938 L 209.167969 284.710938 L 209.167969 331 L 152.171875 331 Z M 152.171875 284.710938 " clip-rule="nonzero"/></clipPath><clipPath id="8926c8df08"><path d="M 231.667969 251.769531 L 288.664062 251.769531 L 288.664062 331 L 231.667969 331 Z M 231.667969 251.769531 " clip-rule="nonzero"/></clipPath><clipPath id="09165faf08"><path d="M 311.164062 185.839844 L 368.164062 185.839844 L 368.164062 331 L 311.164062 331 Z M 311.164062 185.839844 " clip-rule="nonzero"/></clipPath><clipPath id="c99c4a36ae"><rect x="0" width="369" y="0" height="331"/></clipPath><clipPath id="29e375ec88"><path d="M 7 148 L 103 148 L 103 258 L 7 258 Z M 7 148 " clip-rule="nonzero"/></clipPath><clipPath id="03a5e037cc"><path d="M 0.90625 154.117188 L 103.234375 147.40625 L 110.058594 251.535156 L 7.734375 258.246094 Z M 0.90625 154.117188 " clip-rule="nonzero"/></clipPath><clipPath id="25021bb426"><path d="M 23.398438 249.085938 C 23.105469 244.613281 19.242188 241.226562 14.769531 241.519531 C 10.296875 241.8125 6.910156 245.675781 7.203125 250.148438 C 7.496094 254.621094 11.359375 258.007812 15.832031 257.714844 C 20.304688 257.421875 23.691406 253.558594 23.398438 249.085938 Z M 12.527344 247.238281 C 11.214844 248.769531 11.390625 251.078125 12.921875 252.390625 C 14.453125 253.703125 16.757812 253.523438 18.074219 251.992188 L 101.578125 154.59375 C 102.890625 153.0625 102.714844 150.757812 101.183594 149.445312 C 99.652344 148.132812 97.347656 148.308594 96.035156 149.839844 Z M 12.527344 247.238281 " clip-rule="nonzero"/></clipPath><clipPath id="5981264579"><path d="M 90 144 L 195 144 L 195 185 L 90 185 Z M 90 144 " clip-rule="nonzero"/></clipPath><clipPath id="daad57a395"><path d="M 89.792969 143.929688 L 192.117188 137.222656 L 195.246094 184.949219 L 92.921875 191.65625 Z M 89.792969 143.929688 " clip-rule="nonzero"/></clipPath><clipPath id="6f4edb0f47"><path d="M 106.902344 151.683594 C 106.609375 147.214844 102.746094 143.824219 98.273438 144.117188 C 93.804688 144.414062 90.414062 148.273438 90.707031 152.746094 C 91 157.21875 94.863281 160.605469 99.335938 160.3125 C 103.808594 160.019531 107.195312 156.15625 106.902344 151.683594 Z M 99.886719 148.730469 C 97.960938 148.132812 95.914062 149.207031 95.316406 151.132812 C 94.71875 153.0625 95.796875 155.105469 97.722656 155.703125 L 189.480469 184.160156 C 191.40625 184.757812 193.453125 183.679688 194.050781 181.753906 C 194.648438 179.828125 193.570312 177.78125 191.644531 177.183594 Z M 99.886719 148.730469 " clip-rule="nonzero"/></clipPath><clipPath id="5043b98919"><path d="M 182 33 L 275 33 L 275 189 L 182 189 Z M 182 33 " clip-rule="nonzero"/></clipPath><clipPath id="8111ebccc7"><path d="M 172.476562 39.160156 L 276.265625 32.359375 L 286.164062 183.34375 L 182.375 190.148438 Z M 172.476562 39.160156 " clip-rule="nonzero"/></clipPath><clipPath id="322645b91e"><path d="M 198.660156 180.140625 C 198.367188 175.671875 194.503906 172.28125 190.03125 172.574219 C 185.558594 172.867188 182.171875 176.730469 182.464844 181.203125 C 182.757812 185.675781 186.621094 189.0625 191.09375 188.769531 C 195.566406 188.476562 198.953125 184.613281 198.660156 180.140625 Z M 187.378906 178.882812 C 186.390625 180.640625 187.015625 182.867188 188.773438 183.855469 C 190.53125 184.84375 192.757812 184.21875 193.746094 182.460938 L 274.25 39.296875 C 275.238281 37.539062 274.613281 35.3125 272.855469 34.324219 C 271.097656 33.335938 268.871094 33.957031 267.882812 35.714844 Z M 187.378906 178.882812 " clip-rule="nonzero"/></clipPath><clipPath id="8950ece523"><path d="M 262 12 L 368 12 L 368 46 L 262 46 Z M 262 12 " clip-rule="nonzero"/></clipPath><clipPath id="7c01d9192e"><path d="M 260.679688 18.5625 L 367.390625 11.566406 L 369.210938 39.335938 L 262.5 46.332031 Z M 260.679688 18.5625 " clip-rule="nonzero"/></clipPath><clipPath id="361b650d6b"><path d="M 279.164062 36.976562 C 278.871094 32.503906 275.007812 29.117188 270.535156 29.410156 C 266.066406 29.703125 262.675781 33.566406 262.96875 38.035156 C 263.261719 42.507812 267.125 45.894531 271.597656 45.601562 C 276.070312 45.308594 279.457031 41.445312 279.164062 36.976562 Z M 270.367188 33.921875 C 268.390625 34.308594 267.097656 36.226562 267.484375 38.203125 C 267.871094 40.183594 269.785156 41.476562 271.765625 41.089844 L 360.523438 23.78125 C 362.503906 23.394531 363.792969 21.476562 363.40625 19.496094 C 363.023438 17.519531 361.105469 16.226562 359.125 16.613281 Z M 367.921875 19.664062 C 367.628906 15.191406 363.765625 11.804688 359.292969 12.097656 C 354.820312 12.390625 351.433594 16.253906 351.726562 20.726562 C 352.019531 25.199219 355.882812 28.585938 360.355469 28.292969 C 364.828125 28 368.214844 24.136719 367.921875 19.664062 Z M 367.921875 19.664062 " clip-rule="nonzero"/></clipPath><clipPath id="8e3a566a87"><path d="M 6 144 L 103 144 L 103 254 L 6 254 Z M 6 144 " clip-rule="nonzero"/></clipPath><clipPath id="e4e8f4fe04"><path d="M 0.582031 150.007812 L 102.910156 143.300781 L 109.734375 247.429688 L 7.410156 254.136719 Z M 0.582031 150.007812 " clip-rule="nonzero"/></clipPath><clipPath id="03b70a6c94"><path d="M 23.074219 244.976562 C 22.78125 240.507812 18.917969 237.117188 14.445312 237.410156 C 9.972656 237.703125 6.585938 241.566406 6.878906 246.039062 C 7.171875 250.511719 11.035156 253.898438 15.507812 253.605469 C 19.980469 253.3125 23.367188 249.449219 23.074219 244.976562 Z M 12.203125 243.132812 C 10.890625 244.664062 11.070312 246.96875 12.597656 248.28125 C 14.128906 249.59375 16.4375 249.417969 17.75 247.886719 L 101.253906 150.484375 C 102.566406 148.953125 102.390625 146.648438 100.859375 145.335938 C 99.328125 144.023438 97.023438 144.199219 95.710938 145.730469 Z M 12.203125 243.132812 " clip-rule="nonzero"/></clipPath><clipPath id="d15a75a233"><path d="M 90 139 L 194 139 L 194 181 L 90 181 Z M 90 139 " clip-rule="nonzero"/></clipPath><clipPath id="9390fd55c9"><path d="M 89.46875 139.824219 L 191.792969 133.113281 L 194.921875 180.839844 L 92.597656 187.546875 Z M 89.46875 139.824219 " clip-rule="nonzero"/></clipPath><clipPath id="e2df6f9d06"><path d="M 106.578125 147.578125 C 106.285156 143.105469 102.421875 139.71875 97.949219 140.011719 C 93.480469 140.304688 90.089844 144.167969 90.382812 148.640625 C 90.675781 153.109375 94.539062 156.5 99.011719 156.207031 C 103.484375 155.914062 106.871094 152.050781 106.578125 147.578125 Z M 99.5625 144.621094 C 97.636719 144.023438 95.589844 145.101562 94.992188 147.027344 C 94.398438 148.953125 95.472656 151 97.398438 151.597656 L 189.15625 180.050781 C 191.082031 180.648438 193.128906 179.574219 193.726562 177.644531 C 194.324219 175.71875 193.246094 173.675781 191.320312 173.078125 Z M 99.5625 144.621094 " clip-rule="nonzero"/></clipPath><clipPath id="9d65290714"><path d="M 182 29 L 275 29 L 275 185 L 182 185 Z M 182 29 " clip-rule="nonzero"/></clipPath><clipPath id="e6a39ff2ad"><path d="M 172.152344 35.054688 L 275.941406 28.25 L 285.839844 179.238281 L 182.050781 186.042969 Z M 172.152344 35.054688 " clip-rule="nonzero"/></clipPath><clipPath id="cdc48e4511"><path d="M 198.335938 176.035156 C 198.042969 171.5625 194.179688 168.175781 189.707031 168.46875 C 185.234375 168.761719 181.847656 172.625 182.140625 177.09375 C 182.433594 181.566406 186.296875 184.957031 190.769531 184.660156 C 195.242188 184.367188 198.628906 180.503906 198.335938 176.035156 Z M 187.054688 174.773438 C 186.066406 176.53125 186.691406 178.757812 188.449219 179.746094 C 190.207031 180.734375 192.433594 180.113281 193.421875 178.355469 L 273.925781 35.1875 C 274.914062 33.429688 274.289062 31.203125 272.53125 30.214844 C 270.773438 29.226562 268.550781 29.851562 267.558594 31.609375 Z M 187.054688 174.773438 " clip-rule="nonzero"/></clipPath><clipPath id="18a9e1607f"><path d="M 262 7 L 368 7 L 368 42 L 262 42 Z M 262 7 " clip-rule="nonzero"/></clipPath><clipPath id="305c994322"><path d="M 260.355469 14.457031 L 367.066406 7.460938 L 368.886719 35.226562 L 262.175781 42.222656 Z M 260.355469 14.457031 " clip-rule="nonzero"/></clipPath><clipPath id="0d838a3955"><path d="M 278.839844 32.867188 C 278.546875 28.394531 274.683594 25.007812 270.210938 25.300781 C 265.742188 25.59375 262.351562 29.457031 262.644531 33.929688 C 262.9375 38.402344 266.800781 41.789062 271.273438 41.496094 C 275.746094 41.203125 279.132812 37.339844 278.839844 32.867188 Z M 270.042969 29.8125 C 268.066406 30.199219 266.773438 32.117188 267.160156 34.097656 C 267.546875 36.078125 269.464844 37.367188 271.441406 36.980469 L 360.199219 19.671875 C 362.179688 19.285156 363.46875 17.367188 363.082031 15.390625 C 362.699219 13.410156 360.78125 12.117188 358.800781 12.503906 Z M 367.597656 15.558594 C 367.304688 11.085938 363.441406 7.699219 358.96875 7.992188 C 354.496094 8.285156 351.109375 12.148438 351.402344 16.617188 C 351.695312 21.089844 355.558594 24.480469 360.03125 24.183594 C 364.503906 23.890625 367.890625 20.027344 367.597656 15.558594 Z M 367.597656 15.558594 " clip-rule="nonzero"/></clipPath><clipPath id="ca153507d7"><path d="M 0 308.117188 L 56.855469 308.117188 L 56.855469 375 L 0 375 Z M 0 308.117188 " clip-rule="nonzero"/></clipPath><clipPath id="74b961c60f"><path d="M -0.253906 375 L -0.253906 318.976562 C -0.355469 316.191406 0.679688 313.484375 2.617188 311.476562 C 4.550781 309.472656 7.21875 308.339844 10.007812 308.339844 L 46.484375 308.339844 C 49.273438 308.339844 51.941406 309.472656 53.878906 311.476562 C 55.8125 313.484375 56.847656 316.191406 56.746094 318.976562 L 56.746094 375 Z M -0.253906 375 " clip-rule="nonzero"/></clipPath><clipPath id="f7dcf76430"><path d="M 79 242.734375 L 136.511719 242.734375 L 136.511719 375 L 79 375 Z M 79 242.734375 " clip-rule="nonzero"/></clipPath><clipPath id="8cb34e8ae9"><path d="M 79.246094 375 L 79.246094 253.070312 C 79.246094 250.347656 80.324219 247.738281 82.25 245.816406 C 84.175781 243.890625 86.785156 242.808594 89.503906 242.808594 L 125.984375 242.808594 C 128.703125 242.808594 131.3125 243.890625 133.238281 245.816406 C 135.160156 247.738281 136.242188 250.347656 136.242188 253.070312 L 136.242188 375 Z M 79.246094 375 " clip-rule="nonzero"/></clipPath><clipPath id="b7c7936287"><path d="M 158.304688 262.273438 L 216 262.273438 L 216 375 L 158.304688 375 Z M 158.304688 262.273438 " clip-rule="nonzero"/></clipPath><clipPath id="0fb06d0216"><path d="M 158.742188 375 L 158.742188 272.839844 C 158.742188 270.121094 159.824219 267.511719 161.746094 265.585938 C 163.671875 263.664062 166.28125 262.582031 169 262.582031 L 205.480469 262.582031 C 208.203125 262.582031 210.8125 263.664062 212.734375 265.585938 C 214.660156 267.511719 215.738281 270.121094 215.738281 272.839844 L 215.738281 375 Z M 158.742188 375 " clip-rule="nonzero"/></clipPath><clipPath id="d3d3cdc344"><path d="M 238 163.074219 L 295.828125 163.074219 L 295.828125 375 L 238 375 Z M 238 163.074219 " clip-rule="nonzero"/></clipPath><clipPath id="1a202d566a"><path d="M 238.238281 375 L 238.238281 173.980469 C 238.238281 168.316406 242.832031 163.722656 248.5 163.722656 L 284.976562 163.722656 C 290.644531 163.722656 295.238281 168.316406 295.238281 173.980469 L 295.238281 375 Z M 238.238281 375 " clip-rule="nonzero"/></clipPath><clipPath id="a6a22ff18b"><path d="M 317.621094 45.089844 L 374.734375 45.089844 L 374.734375 375 L 317.621094 375 Z M 317.621094 45.089844 " clip-rule="nonzero"/></clipPath><clipPath id="9b823e581a"><path d="M 317.738281 375 L 317.738281 55.347656 C 317.738281 52.628906 318.816406 50.019531 320.742188 48.09375 C 322.664062 46.167969 325.273438 45.089844 327.996094 45.089844 L 364.476562 45.089844 C 367.195312 45.089844 369.804688 46.167969 371.730469 48.09375 C 373.652344 50.019531 374.734375 52.628906 374.734375 55.347656 L 374.734375 375 Z M 317.738281 375 " clip-rule="nonzero"/></clipPath><clipPath id="23cfe79e98"><path d="M 0 341.671875 L 56.746094 341.671875 L 56.746094 375 L 0 375 Z M 0 341.671875 " clip-rule="nonzero"/></clipPath><clipPath id="6a48b48f7c"><path d="M 79.246094 269.246094 L 136.242188 269.246094 L 136.242188 375 L 79.246094 375 Z M 79.246094 269.246094 " clip-rule="nonzero"/></clipPath><clipPath id="2fec454fb6"><path d="M 158.742188 289.035156 L 215.738281 289.035156 L 215.738281 375 L 158.742188 375 Z M 158.742188 289.035156 " clip-rule="nonzero"/></clipPath><clipPath id="8324136c15"><path d="M 238.238281 216.539062 L 295.238281 216.539062 L 295.238281 375 L 238.238281 375 Z M 238.238281 216.539062 " clip-rule="nonzero"/></clipPath><clipPath id="be11e40f43"><path d="M 317.738281 97.875 L 374.734375 97.875 L 374.734375 375 L 317.738281 375 Z M 317.738281 97.875 " clip-rule="nonzero"/></clipPath><clipPath id="c94009bee1"><path d="M 79.246094 322.125 L 136.242188 322.125 L 136.242188 375 L 79.246094 375 Z M 79.246094 322.125 " clip-rule="nonzero"/></clipPath><clipPath id="a2bb13ac7d"><path d="M 158.742188 328.710938 L 215.738281 328.710938 L 215.738281 375 L 158.742188 375 Z M 158.742188 328.710938 " clip-rule="nonzero"/></clipPath><clipPath id="94ab83d498"><path d="M 238.238281 295.769531 L 295.238281 295.769531 L 295.238281 375 L 238.238281 375 Z M 238.238281 295.769531 " clip-rule="nonzero"/></clipPath><clipPath id="594811903a"><path d="M 317.738281 229.839844 L 374.734375 229.839844 L 374.734375 375 L 317.738281 375 Z M 317.738281 229.839844 " clip-rule="nonzero"/></clipPath></defs><g clip-path="url(#8f00f0b1f9)"><g clip-path="url(#b444003549)"><g clip-path="url(#c3018ef6af)"><path fill="#ff5757" d="M -6.832031 29.972656 L 367.390625 5.4375 L 381.953125 227.578125 L 7.734375 252.113281 Z M -6.832031 29.972656 " fill-opacity="1" fill-rule="nonzero"/></g></g></g><g clip-path="url(#2ba830835b)"><g clip-path="url(#8751a480b1)"><g clip-path="url(#ef5260f78f)"><path fill="#ff5757" d="M -6.832031 29.972656 L 367.390625 5.4375 L 381.953125 227.578125 L 7.734375 252.113281 Z M -6.832031 29.972656 " fill-opacity="1" fill-rule="nonzero"/></g></g></g><g clip-path="url(#912deb5b75)"><g clip-path="url(#4dca680090)"><g clip-path="url(#55109af7af)"><path fill="#ff5757" d="M -6.832031 29.972656 L 367.390625 5.4375 L 381.953125 227.578125 L 7.734375 252.113281 Z M -6.832031 29.972656 " fill-opacity="1" fill-rule="nonzero"/></g></g></g><g clip-path="url(#b4973b2a58)"><g clip-path="url(#236e34ea91)"><g clip-path="url(#70b54e3311)"><path fill="#ff5757" d="M -6.832031 29.972656 L 367.390625 5.4375 L 381.953125 227.578125 L 7.734375 252.113281 Z M -6.832031 29.972656 " fill-opacity="1" fill-rule="nonzero"/></g></g></g><g mask="url(#62ae177972)"><g transform="matrix(1, 0, 0, 1, 0, 44)"><g clip-path="url(#c99c4a36ae)"><g clip-path="url(#ff2a509390)"><g clip-path="url(#54f53bc883)"><path fill="#000000" d="M -6.832031 1.089844 L 368.164062 1.089844 L 368.164062 331 L -6.832031 331 Z M -6.832031 1.089844 " fill-opacity="1" fill-rule="nonzero"/></g></g><g clip-path="url(#0cec2c6312)"><g clip-path="url(#f503bda1b6)"><path fill="#000000" d="M -6.832031 1.089844 L 368.164062 1.089844 L 368.164062 331 L -6.832031 331 Z M -6.832031 1.089844 " fill-opacity="1" fill-rule="nonzero"/></g></g><g clip-path="url(#ebfc7683e6)"><g clip-path="url(#4d86bf0a55)"><path fill="#000000" d="M -6.832031 1.089844 L 368.164062 1.089844 L 368.164062 331 L -6.832031 331 Z M -6.832031 1.089844 " fill-opacity="1" fill-rule="nonzero"/></g></g><g clip-path="url(#5b5f5d4281)"><g clip-path="url(#ef95de9461)"><path fill="#000000" d="M -6.832031 1.089844 L 368.164062 1.089844 L 368.164062 331 L -6.832031 331 Z M -6.832031 1.089844 " fill-opacity="1" fill-rule="nonzero"/></g></g><g clip-path="url(#ed3751111d)"><g clip-path="url(#be2fbd0aab)"><path fill="#000000" d="M -6.832031 1.089844 L 368.164062 1.089844 L 368.164062 331 L -6.832031 331 Z M -6.832031 1.089844 " fill-opacity="1" fill-rule="nonzero"/></g></g><g clip-path="url(#c538ab5c59)"><path fill="#000000" d="M -6.832031 1.089844 L 368.164062 1.089844 L 368.164062 331 L -6.832031 331 Z M -6.832031 1.089844 " fill-opacity="1" fill-rule="nonzero"/></g><g clip-path="url(#5f95ab77a3)"><path fill="#000000" d="M -6.832031 1.089844 L 368.164062 1.089844 L 368.164062 331 L -6.832031 331 Z M -6.832031 1.089844 " fill-opacity="1" fill-rule="nonzero"/></g><g clip-path="url(#e5f82a6681)"><path fill="#000000" d="M -6.832031 1.089844 L 368.164062 1.089844 L 368.164062 331 L -6.832031 331 Z M -6.832031 1.089844 " fill-opacity="1" fill-rule="nonzero"/></g><g clip-path="url(#12fbe01a0a)"><path fill="#000000" d="M -6.832031 1.089844 L 368.164062 1.089844 L 368.164062 331 L -6.832031 331 Z M -6.832031 1.089844 " fill-opacity="1" fill-rule="nonzero"/></g><g clip-path="url(#d91ca56c75)"><path fill="#000000" d="M -6.832031 1.089844 L 368.164062 1.089844 L 368.164062 331 L -6.832031 331 Z M -6.832031 1.089844 " fill-opacity="1" fill-rule="nonzero"/></g><g clip-path="url(#f134c05762)"><path fill="#000000" d="M -6.832031 1.089844 L 368.164062 1.089844 L 368.164062 331 L -6.832031 331 Z M -6.832031 1.089844 " fill-opacity="1" fill-rule="nonzero"/></g><g clip-path="url(#92e0f1a373)"><path fill="#000000" d="M -6.832031 1.089844 L 368.164062 1.089844 L 368.164062 331 L -6.832031 331 Z M -6.832031 1.089844 " fill-opacity="1" fill-rule="nonzero"/></g><g clip-path="url(#8926c8df08)"><path fill="#000000" d="M -6.832031 1.089844 L 368.164062 1.089844 L 368.164062 331 L -6.832031 331 Z M -6.832031 1.089844 " fill-opacity="1" fill-rule="nonzero"/></g><g clip-path="url(#09165faf08)"><path fill="#000000" d="M -6.832031 1.089844 L 368.164062 1.089844 L 368.164062 331 L -6.832031 331 Z M -6.832031 1.089844 " fill-opacity="1" fill-rule="nonzero"/></g></g></g></g><g clip-path="url(#29e375ec88)"><g clip-path="url(#03a5e037cc)"><g clip-path="url(#25021bb426)"><path fill="#ff5757" d="M -6.832031 36.101562 L 367.390625 11.566406 L 381.953125 233.710938 L 7.734375 258.246094 Z M -6.832031 36.101562 " fill-opacity="1" fill-rule="nonzero"/></g></g></g><g clip-path="url(#5981264579)"><g clip-path="url(#daad57a395)"><g clip-path="url(#6f4edb0f47)"><path fill="#ff5757" d="M -6.832031 36.101562 L 367.390625 11.566406 L 381.953125 233.710938 L 7.734375 258.246094 Z M -6.832031 36.101562 " fill-opacity="1" fill-rule="nonzero"/></g></g></g><g clip-path="url(#5043b98919)"><g clip-path="url(#8111ebccc7)"><g clip-path="url(#322645b91e)"><path fill="#ff5757" d="M -6.832031 36.101562 L 367.390625 11.566406 L 381.953125 233.710938 L 7.734375 258.246094 Z M -6.832031 36.101562 " fill-opacity="1" fill-rule="nonzero"/></g></g></g><g clip-path="url(#8950ece523)"><g clip-path="url(#7c01d9192e)"><g clip-path="url(#361b650d6b)"><path fill="#ff5757" d="M -6.832031 36.101562 L 367.390625 11.566406 L 381.953125 233.710938 L 7.734375 258.246094 Z M -6.832031 36.101562 " fill-opacity="1" fill-rule="nonzero"/></g></g></g><g clip-path="url(#8e3a566a87)"><g clip-path="url(#e4e8f4fe04)"><g clip-path="url(#03b70a6c94)"><path fill="#ff5757" d="M -7.152344 31.996094 L 367.066406 7.460938 L 381.628906 229.601562 L 7.410156 254.136719 Z M -7.152344 31.996094 " fill-opacity="1" fill-rule="nonzero"/></g></g></g><g clip-path="url(#d15a75a233)"><g clip-path="url(#9390fd55c9)"><g clip-path="url(#e2df6f9d06)"><path fill="#ff5757" d="M -7.152344 31.996094 L 367.066406 7.460938 L 381.628906 229.601562 L 7.410156 254.136719 Z M -7.152344 31.996094 " fill-opacity="1" fill-rule="nonzero"/></g></g></g><g clip-path="url(#9d65290714)"><g clip-path="url(#e6a39ff2ad)"><g clip-path="url(#cdc48e4511)"><path fill="#ff5757" d="M -7.152344 31.996094 L 367.066406 7.460938 L 381.628906 229.601562 L 7.410156 254.136719 Z M -7.152344 31.996094 " fill-opacity="1" fill-rule="nonzero"/></g></g></g><g clip-path="url(#18a9e1607f)"><g clip-path="url(#305c994322)"><g clip-path="url(#0d838a3955)"><path fill="#ff5757" d="M -7.152344 31.996094 L 367.066406 7.460938 L 381.628906 229.601562 L 7.410156 254.136719 Z M -7.152344 31.996094 " fill-opacity="1" fill-rule="nonzero"/></g></g></g><g clip-path="url(#ca153507d7)"><g clip-path="url(#74b961c60f)"><path fill="#c1ff72" d="M -0.257812 45.089844 L 374.734375 45.089844 L 374.734375 375 L -0.257812 375 Z M -0.257812 45.089844 " fill-opacity="1" fill-rule="nonzero"/></g></g><g clip-path="url(#f7dcf76430)"><g clip-path="url(#8cb34e8ae9)"><path fill="#c1ff72" d="M -0.257812 45.089844 L 374.734375 45.089844 L 374.734375 375 L -0.257812 375 Z M -0.257812 45.089844 " fill-opacity="1" fill-rule="nonzero"/></g></g><g clip-path="url(#b7c7936287)"><g clip-path="url(#0fb06d0216)"><path fill="#c1ff72" d="M -0.257812 45.089844 L 374.734375 45.089844 L 374.734375 375 L -0.257812 375 Z M -0.257812 45.089844 " fill-opacity="1" fill-rule="nonzero"/></g></g><g clip-path="url(#d3d3cdc344)"><g clip-path="url(#1a202d566a)"><path fill="#c1ff72" d="M -0.257812 45.089844 L 374.734375 45.089844 L 374.734375 375 L -0.257812 375 Z M -0.257812 45.089844 " fill-opacity="1" fill-rule="nonzero"/></g></g><g clip-path="url(#a6a22ff18b)"><g clip-path="url(#9b823e581a)"><path fill="#c1ff72" d="M -0.257812 45.089844 L 374.734375 45.089844 L 374.734375 375 L -0.257812 375 Z M -0.257812 45.089844 " fill-opacity="1" fill-rule="nonzero"/></g></g><g clip-path="url(#23cfe79e98)"><path fill="#7ed957" d="M -0.257812 45.089844 L 374.734375 45.089844 L 374.734375 375 L -0.257812 375 Z M -0.257812 45.089844 " fill-opacity="1" fill-rule="nonzero"/></g><g clip-path="url(#6a48b48f7c)"><path fill="#7ed957" d="M -0.257812 45.089844 L 374.734375 45.089844 L 374.734375 375 L -0.257812 375 Z M -0.257812 45.089844 " fill-opacity="1" fill-rule="nonzero"/></g><g clip-path="url(#2fec454fb6)"><path fill="#7ed957" d="M -0.257812 45.089844 L 374.734375 45.089844 L 374.734375 375 L -0.257812 375 Z M -0.257812 45.089844 " fill-opacity="1" fill-rule="nonzero"/></g><g clip-path="url(#8324136c15)"><path fill="#7ed957" d="M -0.257812 45.089844 L 374.734375 45.089844 L 374.734375 375 L -0.257812 375 Z M -0.257812 45.089844 " fill-opacity="1" fill-rule="nonzero"/></g><g clip-path="url(#be11e40f43)"><path fill="#7ed957" d="M -0.257812 45.089844 L 374.734375 45.089844 L 374.734375 375 L -0.257812 375 Z M -0.257812 45.089844 " fill-opacity="1" fill-rule="nonzero"/></g><g clip-path="url(#c94009bee1)"><path fill="#00bf63" d="M -0.257812 45.089844 L 374.734375 45.089844 L 374.734375 375 L -0.257812 375 Z M -0.257812 45.089844 " fill-opacity="1" fill-rule="nonzero"/></g><g clip-path="url(#a2bb13ac7d)"><path fill="#00bf63" d="M -0.257812 45.089844 L 374.734375 45.089844 L 374.734375 375 L -0.257812 375 Z M -0.257812 45.089844 " fill-opacity="1" fill-rule="nonzero"/></g><g clip-path="url(#94ab83d498)"><path fill="#00bf63" d="M -0.257812 45.089844 L 374.734375 45.089844 L 374.734375 375 L -0.257812 375 Z M -0.257812 45.089844 " fill-opacity="1" fill-rule="nonzero"/></g><g clip-path="url(#594811903a)"><path fill="#00bf63" d="M -0.257812 45.089844 L 374.734375 45.089844 L 374.734375 375 L -0.257812 375 Z M -0.257812 45.089844 " fill-opacity="1" fill-rule="nonzero"/></g></svg>